<svg version="1.2" xmlns="http://www.w3.org/2000/svg" viewBox="0 0 1640 664" width="1640" height="664"><style>.A{fill:#cc9991}.B{fill:#efdfdc}.C{fill:#fff}</style><path class="A" d="m0 0h1640v664h-1640z"/><path fill-rule="evenodd" class="B" d="m1659.3 198.7c0 0-2.7 6.9-2.7 8.3c0 0-47-60.7-120.1-88.3c-85.6-31.8-162.8 9.6-224.9-23.5l2.7-6.9c85.6 34.5 124.2-15.2 226.3 22.1c73.2 26.2 118.7 88.3 118.7 88.3zm-110.4 172.5c-78.6-34.5-74.5-82.8-143.5-110.4l2.8-5.5c53.8 15.2 75.9 81.4 143.5 109c56.6 24.9 115.9 16.6 115.9 16.6c0 0-2.8 6.9-2.8 5.5c0 0-59.3 11-115.9-15.2zm98 220.8l-1.4 6.9c0 1.4-44.1-40-104.9-52.4c-71.7-13.8-126.9 26.2-180.7 8.3l1.3-5.6c71.8 16.6 96.6-26.2 182.2-9.6c60.7 11 103.5 52.4 103.5 52.4zm2.8 117.3l6.9 6.9c0 1.4-85.6 18-149.1 80.1c-75.9 73.1-74.5 173.8-139.4 222.1l-5.5-6.9c78.7-71.7 48.3-135.2 138-223.5c64.9-62.1 149.1-78.7 149.1-78.7zm20.7 307.8c-66.3 56.5-109.1 31.7-162.9 81.4l-4.1-4.2c37.2-41.4 106.2-34.5 161.4-81.4c47-41.4 63.5-99.3 63.5-99.3c1.4 1.3 5.5 5.5 4.2 5.5c0 0-15.2 57.9-62.1 98zm-135.3 284.2c-85.5-17.9-91.1-66.2-164.2-78.6l1.4-6.9c55.2 4.1 92.4 63.5 162.8 78.6c60.7 12.5 117.3-9.6 117.3-9.6c0 1.4-1.4 6.9-1.4 6.9c0 0-55.2 22.1-115.9 9.6z"/><path fill-rule="evenodd" class="B" d="m1631.7 164.2c-13.8 2.8-34.5-8.3-37.2-52.4c-1.4-31.8 8.2-74.5 8.2-74.5c0 0 30.4 35.8 38.7 59.3c11 31.7 4.1 64.9-9.7 67.6zm-2.7 6.9c9.6 11.1-5.6 37.3-34.5 56.6c-29 19.3-74.6 20.7-74.6 20.7c0 0 16.6-37.3 37.3-56.6c26.2-23.4 63.5-33.1 71.8-20.7zm-91.1-63.5c-12.4 5.6-31.8-2.7-40-41.4c-6.9-28.9-2.8-69-2.8-69c0 0 33.1 29 42.8 48.3c13.8 27.6 12.4 58 0 62.1zm-1.4 6.9c9.7 9.7-1.4 34.5-24.8 56.6c-23.5 20.7-64.9 27.6-64.9 27.6c0 0 11-37.2 26.2-55.2c22.1-26.2 52.5-38.6 63.5-29zm-106.3-15.1c-9.6 4.1-27.6 0-37.2-33.2c-8.3-24.8-8.3-57.9-8.3-57.9c0 0 30.4 22.1 40 37.2c15.2 22.1 15.2 48.3 5.5 53.9zm-1.3 5.5c9.6 6.9 2.7 30.3-16.6 49.7c-17.9 19.3-52.4 28.9-52.4 28.9c0 0 5.5-31.7 17.9-49.6c16.6-23.5 41.4-37.3 51.1-29zm-73.2-4.2c-9.6 2.8-24.8-2.7-30.3-33.1c-5.6-20.7-2.8-51-2.8-51c0 0 24.8 22 33.1 37.2c9.7 19.3 8.3 42.8 0 46.9zm-1.4 4.2c6.9 6.9 0 26.2-17.9 42.8c-17.9 15.1-48.3 20.7-48.3 20.7c0 0 6.9-27.6 19.3-41.4c15.2-19.4 38.7-29 46.9-22.1zm-34.5-8.3c-5.5 11-27.6 8.3-51-5.5c-23.5-13.8-38.7-45.6-38.7-45.6c0 0 31.8 0 51.1 8.3c26.2 9.7 44.2 31.8 38.6 42.8zm287.1 339.5c-16.6 9.6-53.8 12.4-53.8 12.4c0 0 15.1-29 33.1-46.9c24.8-23.5 42.8-18 49.7-8.3c6.9 8.3-5.6 31.7-29 42.8zm-1.4-99.4c-2.8-22.1 6.9-53.8 6.9-53.8c0 0 26.2 26.2 34.5 53.8c6.9 26.2 2.8 49.7-8.3 51.1c-12.4 2.7-29-23.5-33.1-51.1zm-86.9 71.8c-16.6 5.5-51.1 4.1-51.1 4.1c0 0 17.9-24.8 35.9-37.2c26.2-18 41.4-11.1 46.9-2.8c5.5 9.7-9.7 27.6-31.7 35.9zm11-91.1c0-19.3 12.4-45.5 12.4-45.5c0 0 20.7 26.2 24.9 51c2.7 24.9-4.2 45.6-15.2 45.6c-11.1 0-22.1-24.9-22.1-51.1zm-80 29c-13.8 4.1-44.2 0-44.2 0c0 0 17.9-19.3 34.5-29c23.5-13.8 35.9-6.9 40 1.4c4.2 8.3-9.6 23.4-30.3 27.6zm16.5-75.9c2.8-16.6 15.2-38.7 15.2-38.7c0 0 16.6 24.9 16.6 45.6c1.3 22.1-6.9 38.6-15.2 37.2c-9.7 0-18-22-16.6-44.1zm-55.2 33.1c-12.4 4.1-38.6 2.8-38.6 2.8c0 0 13.8-18 27.6-27.6c19.3-13.8 31.7-8.3 35.9-1.4c4.1 6.9-8.3 20.7-24.9 26.2zm9.7-67.6c0-15.2 9.6-35.9 9.6-35.9c0 0 15.2 20.7 18 40c2.7 18-2.8 33.1-11.1 33.1c-8.2 0-17.9-17.9-16.5-37.2zm-53.8 27.6c-16.6-6.9-35.9-24.9-35.9-24.9c0 0 26.2-8.2 46.9-4.1c22.1 4.1 37.3 16.6 34.5 24.8c-1.4 9.7-24.8 12.5-45.5 4.2zm259.4 309.1c-11 2.8-29-2.8-35.9-35.9c-4.1-24.8-1.4-57.9-1.4-57.9c0 0 29 23.4 38.7 41.4c12.4 22 9.6 48.3-1.4 52.4zm-1.4 4.1c9.7 8.3 0 30.4-22.1 48.3c-22 18-57.9 23.5-57.9 23.5c0 0 9.6-30.4 23.4-46.9c19.4-22.1 48.3-33.1 56.6-24.9zm-80-37.2c-9.7 4.1-27.6 1.4-37.3-27.6c-8.3-22.1-9.6-52.5-9.6-52.5c0 0 30.3 18 40 33.2c13.8 19.3 15.2 42.7 6.9 46.9zm-1.4 5.5c9.7 5.5 2.8 26.2-13.8 45.5c-16.6 18-49.7 27.6-49.7 27.6c0 0 4.2-28.9 15.2-45.5c15.2-20.7 38.6-34.5 48.3-27.6zm-86.9 0c-8.3 4.1-23.5 2.8-34.5-22.1c-8.3-16.5-12.5-42.8-12.5-42.8c0 0 26.3 13.8 37.3 24.9c13.8 15.2 16.6 34.5 9.7 40zm-1.4 4.1c8.3 4.2 5.5 22.1-8.3 40.1c-12.4 16.5-40 27.6-40 27.6c0 0 2.7-24.9 9.6-40.1c11.1-19.3 30.4-33.1 38.7-27.6zm-59.4 4.2c-6.9 4.1-20.7 1.4-28.9-20.7c-5.6-16.6-6.9-38.7-6.9-38.7c0 0 22 13.8 30.3 23.5c11.1 15.2 12.4 33.1 5.5 35.9zm-1.3 4.1c6.9 5.5 2.7 20.7-9.7 34.5c-12.4 13.8-37.3 22.1-37.3 22.1c0 0 2.8-22.1 11.1-34.5c11-16.6 29-26.2 35.9-22.1zm-27.6-2.7c-4.2 8.2-22.1 9.6-42.8 1.3c-20.7-8.2-35.9-30.3-35.9-30.3c0 0 26.2-4.2 42.8 0c22.1 5.5 38.6 20.7 35.9 29zm241.5 161.4c-4.2 16.6-26.3 33.1-71.8 12.4c-33.1-13.8-69-45.5-69-45.5c0 0 52.4-13.8 80-11c37.3 4.1 66.3 28.9 60.8 44.1zm5.5 5.5c16.5-2.7 34.5 26.3 37.2 66.3c2.8 40-19.3 89.7-19.3 89.7c0 0-29-37.3-35.9-69c-9.6-40 0-82.8 18-87zm-111.8 64.9c-2.8 15.2-20.7 33.1-64.9 20.7c-31.7-8.3-69-31.7-69-31.7c0 0 47-19.4 71.8-20.7c34.5 0 64.9 17.9 62.1 31.7zm4.1 5.5c15.2-5.5 34.5 18 42.8 53.8c8.3 35.9-6.9 82.8-6.9 82.8c0 0-30.3-28.9-41.4-56.5c-12.4-34.5-8.3-74.6 5.5-80.1zm-71.7 103.5c-1.4 13.8-15.2 29-53.8 23.5c-27.6-5.5-60.8-22.1-60.8-22.1c0 0 37.3-20.7 59.4-23.5c29-2.7 55.2 9.7 55.2 22.1zm4.1 4.2c12.4-5.6 31.8 13.8 41.4 42.7c9.7 30.4 0 70.4 0 70.4c0 0-29-22.1-40-44.1c-13.8-29-13.8-62.1-1.4-69zm-44.1 75.9c-1.4 11-15.2 23.4-48.3 15.1c-23.5-5.5-51.1-23.4-51.1-23.4c0 0 34.5-15.2 53.8-15.2c24.9-1.4 46.9 12.4 45.6 23.5zm4.1 4.1c11-4.1 26.2 13.8 33.1 40c5.5 27.6-5.5 62.1-5.5 62.1c0 0-23.5-22.1-30.4-42.8c-11-26.2-8.2-55.2 2.8-59.3zm-26.2 30.4c6.9 11-6.9 34.5-33.1 52.4c-26.3 16.6-66.3 17.9-66.3 17.9c0 0 16.6-34.5 35.9-51c23.5-22.1 56.6-30.4 63.5-19.3zm380.9-18c0 19.3-12.5 55.2-12.5 55.2c0 0-19.3-27.6-27.6-51c-11-31.8 1.4-47 12.5-48.3c12.4-2.8 26.2 19.3 27.6 44.1zm-91.1-41.4c-20.7-6.9-45.6-27.6-45.6-27.6c0 0 35.9-13.8 62.1-9.6c27.6 5.5 47 19.3 44.2 30.3c-4.1 11.1-34.5 16.6-60.7 6.9zm27.6 110.4c-2.8 18-18 48.3-18 48.3c0 0-15.1-27.6-19.3-49.7c-5.5-30.3 8.3-41.4 19.3-42.7c9.7-1.4 20.7 20.7 18 44.1zm-77.3-48.3c-17.9-9.6-35.9-31.7-35.9-31.7c0 0 33.1-8.3 56.6 0c24.8 6.9 40 22.1 34.5 31.7c-4.1 11.1-31.7 11.1-55.2 0zm-8.3 84.2c-2.7 13.8-19.3 38.6-19.3 38.6c0 0-9.7-23.4-11-42.7c-2.8-27.6 9.6-35.9 17.9-35.9c9.7 0 16.6 19.3 12.4 40zm-62.1-48.3c-13.8-9.7-27.6-30.4-27.6-30.4c0 0 29-4.1 48.3 4.2c19.3 8.3 31.8 23.4 26.2 30.3c-4.1 8.3-27.6 6.9-46.9-4.1zm6.9 63.5c-1.4 13.8-13.8 35.9-13.8 35.9c0 0-11-19.4-13.8-35.9c-4.1-23.5 5.5-31.8 13.8-33.1c8.3 0 15.2 16.5 13.8 33.1zm-57.9-37.3c-13.8-5.5-27.6-23.4-27.6-23.4c0 0 24.8-5.6 42.7 0c18 5.5 30.4 17.9 26.3 24.8c-2.8 6.9-23.5 8.3-41.4-1.4zm1.3 60.7c-12.4 12.5-35.8 22.1-35.8 22.1c0 0 2.7-27.6 15.1-44.1c13.8-18 30.4-26.3 38.7-20.7c6.9 5.5-1.4 27.6-18 42.7zm113.2 216.7c-15.2 12.4-51.1 23.5-51.1 23.5c0 0 9.7-31.8 23.5-52.5c19.3-29 37.3-27.6 46.9-19.3c8.3 6.9 0 31.7-19.3 48.3zm-23.5-98c-6.9-20.7-4.1-52.4-4.1-52.4c0 0 31.7 19.3 44.2 44.1c13.8 24.9 13.8 48.3 2.7 52.5c-11 4.1-33.1-16.6-42.8-44.2zm-70.3 89.7c-15.2 8.3-48.3 13.8-48.3 13.8c0 0 12.4-27.6 27.6-44.1c20.7-23.5 38.6-19.4 45.5-11.1c6.9 6.9-4.1 29-24.8 41.4zm-8.3-91.1c-2.8-19.3 4.1-48.3 4.1-48.3c0 0 26.2 22.1 34.5 45.6c8.3 23.4 5.5 44.1-5.5 46.9c-9.7 2.8-27.6-19.3-33.1-44.2zm-71.8 44.2c-12.4 5.5-42.8 8.3-42.8 8.3c0 0 13.8-22.1 27.6-35.9c20.7-17.9 34.5-12.4 40.1-5.5c5.5 6.9-5.6 23.4-24.9 33.1zm1.4-78.7c-1.4-16.5 6.9-40 6.9-40c0 0 20.7 20.7 24.8 41.4c5.6 20.7 2.8 38.7-6.9 40c-9.6 0-22-19.3-24.8-41.4zm-46.9 44.2c-12.4 6.9-37.3 11-37.3 11c0 0 9.7-20.7 20.7-33.1c16.6-16.5 29-15.2 34.5-8.3c5.5 5.6-2.7 22.1-17.9 30.4zm-5.5-69c-2.8-13.8 1.3-35.9 1.3-35.9c0 0 20.7 16.6 26.3 34.5c6.9 18 4.1 34.5-2.8 35.9c-8.3 1.4-22.1-15.2-24.8-34.5zm-47 38.6c-16.5-2.7-40-16.5-40-16.5c0 0 23.5-13.8 45.6-13.8c22 0 38.6 8.3 38.6 17.9c0 8.3-22.1 16.6-44.2 12.4z"/><path fill-rule="evenodd" class="B" d="m89.4 92.5c83.7-30.6 115.4 10.2 185.5-18.1l2.3 5.6c-50.9 27.2-114.3-6.7-184.4 19.3c-59.9 22.6-98.4 72.4-98.4 72.4c0-1.2-2.2-6.8-2.2-6.8c0 0 37.3-50.9 97.2-72.4zm-101.8 226.2c0 1.1-2.2-4.5-2.2-4.5c0 0 48.6 6.7 95-13.6c55.4-22.6 73.5-76.9 117.6-89.4l2.3 4.6c-56.6 22.6-53.2 62.2-117.7 90.4c-46.3 21.5-95 12.5-95 12.5zm99.6 125.5c70.1-13.6 90.4 21.5 149.3 7.9l1.1 4.6c-44.1 14.7-89.4-18.1-148.2-6.8c-49.7 10.2-85.9 44.1-85.9 43l-1.2-5.7c0 0 35.1-33.9 84.9-43zm35 203.6c73.5 72.4 48.7 124.4 113.1 183.2l-4.5 5.7c-53.2-39.6-52-122.2-114.2-182.1c-52-50.9-122.2-64.5-122.2-65.6l5.7-5.7c0 0 69 13.6 122.1 64.5zm-190 107.4c-1.1 0 2.3-3.3 3.4-4.5c0 0 13.6 47.5 52 81.5c45.3 38.4 101.8 32.8 132.4 66.7l-3.4 3.4c-44.1-40.7-79.2-20.4-133.5-66.8c-38.4-32.8-50.9-80.3-50.9-80.3zm66.8 305.4c0 0-1.2-4.5-1.2-5.6c0 0 46.4 18.1 96.2 7.9c57.6-12.5 88.2-61.1 133.4-64.5l1.1 5.7c-59.9 10.1-64.4 49.7-134.5 64.4c-49.8 10.2-95-7.9-95-7.9z"/><path fill-rule="evenodd" class="B" d="m6.9 81.2c6.8-19.3 31.6-48.7 31.6-48.7c0 0 8 35.1 6.8 61.1c-2.2 36.2-19.2 45.3-30.5 43c-11.3-2.3-17-29.4-7.9-55.4zm69 78c16.9 15.8 30.5 46.4 30.5 46.4c0 0-37.3-1.2-61.1-17c-23.7-15.8-36.2-37.3-28.3-46.4c6.8-10.1 37.4-2.2 58.9 17zm15.8-119.9c7.9-15.8 35.1-39.6 35.1-39.6c0 0 3.3 32.8-2.3 56.6c-6.8 31.7-22.6 38.4-32.8 33.9c-10.2-3.4-11.3-28.3 0-50.9zm53.2 80.3c12.4 14.7 21.4 45.3 21.4 45.3c0 0-33.9-5.7-53.1-22.7c-19.2-18.1-28.3-38.4-20.4-46.3c9.1-7.9 34 2.2 52.1 23.7zm39.5-80.3c8-12.4 32.8-30.5 32.8-30.5c0 0 0 27.1-6.8 47.5c-7.9 27.1-22.6 30.5-30.5 27.1c-7.9-4.5-7.9-26 4.5-44.1zm38.5 72.4c10.2 14.7 14.7 40.7 14.7 40.7c0 0-28.3-7.9-43-23.7c-15.8-15.9-21.5-35.1-13.6-40.7c8-6.8 28.3 4.5 41.9 23.7zm18.1-65.6c6.8-12.4 27.1-30.5 27.1-30.5c0 0 2.3 24.9-2.2 41.8c-4.6 24.9-17 29.4-24.9 27.2c-6.8-3.4-7.9-22.7 0-38.5zm39.6 60c10.1 11.3 15.8 33.9 15.8 33.9c0 0-24.9-4.5-39.6-17c-14.7-13.6-20.3-29.4-14.7-35c6.8-5.7 26 2.2 38.5 18.1zm21.5-60c15.8-6.8 41.8-6.8 41.8-6.8c0 0-12.4 26-31.7 37.3c-19.2 11.4-37.3 13.6-41.8 4.6c-4.5-9.1 10.2-27.2 31.7-35.1zm-290.7 278.2c5.6-7.9 20.4-12.4 40.7 6.8c14.7 14.7 27.2 38.5 27.2 38.5c0 0-30.6-2.3-44.2-10.2c-19.2-9.1-29.4-28.3-23.7-35.1zm-2.3-4.5c-9-1.1-12.4-20.3-6.8-41.8c6.8-22.7 28.3-44.1 28.3-44.1c0 0 7.9 26 5.7 44.1c-3.4 22.6-17 44.1-27.2 41.8zm72.4-12.4c4.5-6.8 17-12.5 38.5 2.2c14.7 10.2 29.4 30.6 29.4 30.6c0 0-28.3 1.1-41.9-3.4c-18.1-6.8-30.5-21.5-26-29.4zm-1.1-3.4c-9.1 0-14.7-17-12.5-37.3c3.4-20.4 20.4-41.9 20.4-41.9c0 0 10.2 21.5 10.2 37.3c0 21.5-9.1 41.9-18.1 41.9zm58.8-40.7c3.4-6.8 13.6-12.5 32.8-1.2c13.6 7.9 28.3 23.8 28.3 23.8c0 0-24.9 3.4-36.2 0c-17-3.4-28.3-15.9-24.9-22.6zm-2.3-3.4c-6.8 1.1-13.5-12.5-12.4-30.6c0-16.9 13.6-37.3 13.6-37.3c0 0 10.1 18.1 12.4 31.7c1.1 18.1-5.6 36.2-13.6 36.2zm38.5-30.6c3.4-5.6 13.6-10.1 29.4 1.2c11.3 7.9 22.6 22.6 22.6 22.6c0 0-21.5 1.1-31.7-2.3c-13.5-4.5-23.7-15.8-20.3-21.5zm-1.1-3.4c-6.8 0-11.4-12.4-9.1-27.1c2.3-15.8 14.7-32.8 14.7-32.8c0 0 7.9 17 7.9 29.4c1.2 15.8-6.8 30.5-13.5 30.5zm20.3-11.3c-2.2-6.8 10.2-16.9 28.3-20.3c17-3.4 38.4 3.4 38.4 3.4c0 0-15.8 14.7-29.4 20.3c-16.9 6.8-36.2 4.5-37.3-3.4zm-176.4 213.8c7.9-14.7 31.6-33.9 31.6-33.9c0 0 2.3 27.1-1.1 47.5c-5.6 27.1-20.3 31.6-29.4 29.4c-9-3.4-11.3-24.9-1.1-43zm48.6 66.7c11.3 13.6 19.2 38.5 19.2 38.5c0 0-29.4-4.6-47.5-19.3c-18.1-14.7-26-32.8-18.1-39.5c6.8-6.8 30.6 2.2 46.4 20.3zm24.9-89.3c7.9-12.5 32.8-27.2 32.8-27.2c0 0-1.1 24.9-7.9 43c-7.9 23.8-22.6 26-30.6 22.6c-6.7-3.4-5.6-22.6 5.7-38.4zm35.1 65.6c9 13.5 12.4 37.3 12.4 37.3c0 0-27.1-7.9-40.7-22.6c-13.6-15.9-19.2-32.8-11.3-37.4c7.9-5.6 27.1 5.7 39.6 22.7zm39.5-55.5c9.1-9 30.6-20.3 30.6-20.3c0 0-3.4 21.5-10.2 35c-9.1 20.4-21.5 21.5-28.3 18.1c-5.6-4.5-3.4-20.3 7.9-32.8zm24.9 58.9c5.7 12.4 7.9 32.8 7.9 32.8c0 0-22.6-9.1-32.8-22.7c-11.3-14.7-13.5-29.4-6.7-32.8c6.7-4.5 22.6 6.8 31.6 22.7zm21.5-48.7c6.8-7.9 24.9-19.2 24.9-19.2c0 0-1.1 18.1-5.7 31.7c-6.7 18.1-18.1 20.3-23.7 16.9c-5.7-2.2-4.5-16.9 4.5-29.4zm26 50.9c6.8 10.2 9.1 28.3 9.1 28.3c0 0-20.4-6.8-30.6-18.1c-10.1-11.3-13.5-23.8-7.9-28.3c5.7-3.4 20.4 4.5 29.4 18.1zm22.6-44.1c13.6-3.4 35.1 0 35.1 0c0 0-12.4 18.1-29.4 24.9c-17 6.8-31.7 5.6-35.1-1.1c-2.2-6.8 11.3-19.3 29.4-23.8zm-177.5 119.9c22.6-2.3 65.6 9 65.6 9c0 0-29.4 26.1-56.6 37.4c-37.3 16.9-55.4 3.4-58.8-10.2c-4.5-12.5 19.2-32.8 49.8-36.2zm-39.6 112c-5.7 26-29.4 56.5-29.4 56.5c0 0-18.1-40.7-15.8-73.5c2.2-32.8 16.9-56.5 30.5-54.3c14.7 3.4 22.6 38.5 14.7 71.3zm127.8-44.1c20.4 1.1 58.8 16.9 58.8 16.9c0 0-30.5 19.2-56.5 26c-36.2 10.2-50.9-4.5-53.2-16.9c-2.3-11.3 22.6-26 50.9-26zm-49.8 96.1c-9 22.6-33.9 46.4-33.9 46.4c0 0-12.4-38.5-5.7-67.9c6.8-29.4 22.7-48.6 35.1-44.1c11.3 4.5 14.7 37.3 4.5 65.6zm99.6 1.1c18.1 2.3 48.6 19.3 48.6 19.3c0 0-27.2 13.5-49.8 18c-31.6 4.6-43-7.9-44.1-19.2c0-10.2 21.5-20.3 45.3-18.1zm-49.8 78.1c-9.1 18.1-32.8 36.2-32.8 36.2c0 0-7.9-32.8 0-57.7c7.9-23.8 23.7-39.6 33.9-35.1c10.2 5.7 10.2 32.8-1.1 56.6zm74.6-13.6c15.9 0 44.1 12.4 44.1 12.4c0 0-22.6 14.7-41.8 19.3c-27.1 6.7-38.5-3.4-39.6-12.5c-1.1-9 17-20.3 37.3-19.2zm-38.4 71.2c-5.7 17-24.9 35.1-24.9 35.1c0 0-9-28.3-4.5-50.9c5.6-21.5 18.1-36.2 27.1-32.8c9.1 3.4 11.3 27.2 2.3 48.6zm71.2-7.9c15.9 13.6 29.4 41.9 29.4 41.9c0 0-32.8-1.2-54.2-14.7c-21.5-14.7-32.8-34-27.2-43c5.7-9.1 32.8-2.3 52 15.8zm-341.5-66.7c9 1.1 19.2 13.6 10.2 39.6c-6.8 19.2-22.7 41.8-22.7 41.8c0 0-10.1-29.4-10.1-45.2c1.1-20.4 12.4-38.5 22.6-36.2zm2.2-3.4c-2.2-9 13.6-20.4 36.2-24.9c21.5-3.4 50.9 7.9 50.9 7.9c0 0-20.3 17-37.3 22.7c-21.5 7.9-46.4 3.4-49.8-5.7zm41.9 59.9c9 1.2 20.3 10.2 15.8 35.1c-3.4 18.1-15.8 40.7-15.8 40.7c0 0-12.5-24.9-14.7-39.6c-2.3-19.2 6.8-37.3 14.7-36.2zm3.4-3.3c-4.5-8 7.9-20.4 28.3-26.1c19.2-6.7 46.3 0 46.3 0c0 0-14.7 18.1-29.4 26.1c-19.2 9-41.8 9-45.2 0zm62.2 36.1c6.8 0 16.9 6.8 14.7 29.5c-1.1 15.8-9.1 35-9.1 35c0 0-13.5-20.3-15.8-31.7c-3.4-16.9 2.3-32.8 10.2-32.8zm2.2-3.3c-4.5-5.7 5.7-18.1 21.5-24.9c15.9-6.8 39.6-3.4 39.6-3.4c0 0-11.3 16.9-22.6 24.9c-15.8 9-35.1 10.1-38.5 3.4zm44.2 21.4c6.7 1.2 14.7 8 11.3 27.2c-2.3 13.6-11.3 29.4-11.3 29.4c0 0-10.2-18.1-11.4-29.4c-1.1-13.6 4.6-27.2 11.4-27.2zm2.2-2.2c-3.4-5.7 6.8-15.9 21.5-20.4c14.7-4.5 35.1 0 35.1 0c0 0-11.3 14.7-22.7 19.2c-14.7 8-31.6 6.8-33.9 1.2zm18.1 13.6c6.8-4.6 20.4 2.2 31.7 16.9c10.2 13.6 12.4 36.2 12.4 36.2c0 0-19.2-7.9-29.4-18.1c-13.6-12.4-20.3-30.5-14.7-35zm-93.9 173c8-6.8 22.7-7.9 38.5 15.8c11.3 17 19.2 43 19.2 43c0 0-29.4-9-41.8-19.2c-15.9-13.6-22.6-33.9-15.9-39.6zm0-4.5c-9-3.4-9-22.6 2.3-43c10.2-20.4 36.2-36.2 36.2-36.2c0 0 2.3 26-3.4 43c-7.9 22.6-26 39.6-35.1 36.2zm72.4 3.4c5.7-6.8 20.4-10.2 37.3 9c12.5 13.6 22.7 36.2 22.7 36.2c0 0-27.2-4.5-39.6-11.3c-17-10.2-26-28.3-20.4-33.9zm0-4.6c-9-2.2-11.3-19.2-4.5-38.4c6.8-19.2 28.3-37.3 28.3-37.3c0 0 5.6 23.7 3.4 39.5c-4.6 20.4-19.3 38.5-27.2 36.2zm65.6-27.1c4.5-5.7 15.9-10.2 32.8 4.5c11.3 11.3 22.6 29.4 22.6 29.4c0 0-24.8-2.2-35-6.8c-15.9-7.9-24.9-21.4-20.4-27.1zm-1.1-3.4c-7.9-1.1-10.2-15.8-5.7-32.8c3.4-17 20.4-33.9 20.4-33.9c0 0 6.8 19.2 5.6 32.8c-2.2 18.1-12.4 33.9-20.3 33.9zm44.1-22.6c4.5-5.7 14.7-6.8 28.3 6.8c9 10.1 16.9 27.1 16.9 27.1c0 0-20.3-3.4-30.5-9c-12.4-6.8-19.2-20.4-14.7-24.9zm-1.1-3.4c-5.7-1.1-7.9-14.7-2.3-29.4c4.5-14.7 21.5-28.3 21.5-28.3c0 0 3.4 18.1 1.1 29.4c-2.2 15.8-13.5 29.4-20.3 28.3zm22.6-6.8c0-7.9 13.6-14.7 31.7-14.7c18.1 0 37.3 11.3 37.3 11.3c0 0-19.2 11.3-32.8 13.6c-18.1 3.4-36.2-3.4-36.2-10.2z"/><path class="C" d="m615.9 400.3q-1.9 0-2.7-1q-0.7-1-0.5-2.8l3.8-23.9q0.5-3.3 3.9-3.3q1.4 0 2.3 0.6q0.9 0.6 1.5 2.2l5.9 15.1l11.1-15.7q0.9-1.2 1.8-1.7q1-0.5 2.5-0.5q1.8 0 2.7 1q0.8 1 0.6 2.9l-3.8 23.8q-0.5 3.3-3.9 3.3q-1.8 0-2.7-1q-0.8-1-0.5-2.8l2.1-13.1l-7.8 10.8q-0.6 0.9-1.3 1.3q-0.6 0.4-1.7 0.4q-1.1 0-1.8-0.5q-0.7-0.5-1.1-1.6l-4.4-10.2l-2.1 13.4q-0.5 3.3-3.9 3.3zm41.1 0.2q-2.1 0-3.7-1q-1.7-0.9-2.7-2.4q-0.9-1.6-0.9-3.3q0-3.4 2.9-4.9q2.9-1.5 8.9-1.5h2.9l0.1-0.4q0.2-1.4-0.7-2.3q-0.8-0.8-2.8-0.8q-2.4 0-5 1q-1.4 0.5-2.4 0q-0.9-0.6-1.2-1.6q-0.3-1.1 0.3-2.1q0.6-1.1 2.3-1.7q1.9-0.6 3.7-0.9q1.7-0.2 3.4-0.2q3.9 0 6.1 1.4q2.2 1.4 2.9 3.8q0.8 2.4 0.3 5.2l-1.2 7.8q-0.6 3.8-4.1 3.8q-1.6 0-2.4-0.9q-0.8-0.8-0.6-2.6q-1.1 1.9-2.7 2.8q-1.5 0.8-3.4 0.8zm2.6-5q1.7 0 2.8-1q1.1-1 1.3-2.6l0.1-0.9h-2.3q-2.4 0-3.5 0.5q-1 0.5-1 1.7q0 1.1 0.7 1.7q0.8 0.6 1.9 0.6zm18.2 4.9q-1.8 0-2.6-1.2q-0.9-1.1-0.5-3.2l3.6-23q0.6-3.7 4.4-3.7q1.8 0 2.6 1.2q0.9 1.2 0.5 3.3l-2.1 13.6h0.1l6.4-6.7q1.1-1.2 2-1.7q0.9-0.5 2.3-0.5q1.6 0 2.4 0.8q0.7 0.8 0.6 2q-0.2 1.2-1.2 2.4l-5.3 5.5l3.9 5.9q0.9 1.3 0.8 2.5q-0.1 1.2-1 2q-0.9 0.8-2.3 0.8q-1.8 0-2.8-0.7q-0.9-0.6-1.8-2.2l-4.6-6.7h-0.1l-0.9 5.8q-0.6 3.8-4.4 3.8zm32.8 0.1q-3.4 0-5.9-1.2q-2.6-1.3-4-3.5q-1.4-2.3-1.4-5.2q0-3.7 1.6-6.4q1.6-2.8 4.4-4.3q2.7-1.5 6.1-1.5q3.7 0 5.9 1.6q2.2 1.5 3 4q0.9 2.5 0.5 5.2q-0.1 1.1-0.6 1.5q-0.5 0.3-1.2 0.3h-12.6q0.1 1.9 1.4 2.9q1.3 0.9 3.6 0.9q1 0 2.2-0.2q1.3-0.2 2.2-0.6q1.5-0.6 2.3-0.1q0.9 0.5 1.1 1.6q0.2 1-0.3 2.1q-0.5 1.1-1.8 1.6q-1.5 0.7-3.2 1q-1.7 0.3-3.3 0.3zm0.8-17.1q-2 0-3.1 1.1q-1.1 1.2-1.5 2.9h8.2q0.1-1.8-0.8-2.9q-0.9-1.1-2.8-1.1zm37.8 17.1q-3.9 0-6.9-1.5q-2.9-1.6-4.4-4.7q-1.4-3.2-0.6-8l2.1-13.3q0.6-3.7 4.3-3.7q2 0 2.9 1.2q0.9 1.1 0.6 3.1l-2.1 13.2q-0.5 3.3 0.6 5.2q1.2 1.9 4.2 1.9q2.7 0 4.3-1.5q1.6-1.4 2.1-4.5l2.4-14.9q0.6-3.7 4.3-3.7q1.9 0 2.8 1.1q0.9 1.1 0.6 3.2l-2.2 13.9q-1 6.3-4.5 9.7q-3.5 3.3-10.5 3.3zm20.3 7.6q-1.8 0-2.7-1.1q-0.8-1.2-0.4-3.3l3.4-21.5q0.6-3.7 4.3-3.7q1.5 0 2.4 0.9q0.8 0.8 0.7 2.4q1.2-1.7 3-2.5q1.8-0.9 3.9-0.9q3.5 0 5.6 2.5q2.2 2.4 2.2 6.7q0 3.7-1.3 6.6q-1.4 2.9-3.8 4.6q-2.4 1.7-5.6 1.7q-2.1 0-3.7-0.8q-1.6-0.9-2.5-2.5l-1.1 7.2q-0.6 3.7-4.4 3.7zm10.1-13.3q2.1 0 3.4-1.9q1.2-1.9 1.2-4.9q0-1.9-0.9-3q-0.9-1-2.4-1q-2.2 0-3.4 1.9q-1.3 2-1.3 4.9q0 2 0.9 3q0.9 1 2.5 1zm38 5.7q-3.2 0-5.5-1q-2.4-1-3.7-2.8q-1.3-1.7-1.3-4q0-3.2 2-5.5q2.1-2.3 5.1-3.8q-1-1.2-1.4-2.6q-0.5-1.5-0.5-2.9q0-2.7 1.4-4.6q1.3-2 3.6-3q2.3-1.1 5.1-1.1q3.7 0 5.8 1.9q2.2 1.8 2.2 4.6q0 1.9-1 3.5q-0.9 1.6-2.4 2.9q-1.5 1.3-3.2 2.2l3.8 4.3q0.8-1.1 1.4-2.3q0.5-1.2 1-2.8q0.5-1.3 1.3-1.9q0.9-0.7 2.3-0.7q1.6 0 2.4 0.9q0.8 0.9 0.3 2.5q-0.7 2.5-1.9 4.6q-1.1 2.1-2.6 3.9l2.5 2.8q1 1.1 0.9 2.3q0 1.1-0.9 1.8q-0.9 0.8-2.4 0.8q-0.7 0-1.5-0.2q-0.7-0.3-1.3-0.9l-1.9-2.2q-2 1.6-4.4 2.4q-2.3 0.9-5.2 0.9zm4.7-26.3q-1.4 0-2.2 0.9q-0.9 0.8-0.9 2.4q0 0.7 0.3 1.4q0.3 0.7 1 1.6q1.9-0.5 2.9-1.7q1.1-1.3 1.1-2.6q0-0.9-0.6-1.4q-0.5-0.6-1.6-0.6zm-3.5 20.5q1.3 0 2.3-0.4q1.1-0.4 2.1-1.1l-5.3-6q-1.4 0.8-2.4 1.9q-0.8 1.1-0.8 2.5q0 1.3 1 2.2q1.1 0.9 3.1 0.9zm44.8 5.8q-2.5 0-5.1-0.5q-2.7-0.6-4.8-1.7q-1.2-0.6-1.6-1.5q-0.5-1-0.3-2q0.1-1 0.7-1.8q0.7-0.8 1.7-1.1q1-0.2 2.3 0.4q1.9 0.9 4 1.3q2.2 0.4 3.9 0.4q2.4 0 3.7-0.8q1.4-0.8 1.4-2q0-1-0.8-1.6q-0.8-0.7-2.5-1.1l-5-1.2q-3.3-0.8-5.2-2.8q-1.9-2.1-1.9-5.1q0-3.3 1.8-5.5q1.8-2.3 4.7-3.5q3-1.2 6.4-1.2q2 0 4.4 0.5q2.5 0.5 4.7 1.7q1 0.5 1.4 1.4q0.5 0.9 0.4 1.9q-0.1 0.9-0.7 1.7q-0.6 0.7-1.8 0.9q-1 0.3-2.5-0.3q-1.4-0.6-3-1q-1.5-0.3-3-0.3q-2.3 0-3.7 0.8q-1.3 0.8-1.3 2q0 2 3 2.7l4.9 1.2q3.5 0.8 5.5 2.9q1.9 2.1 1.9 5q0 2.6-1.1 4.5q-1.1 1.9-3 3.2q-1.9 1.2-4.4 1.9q-2.4 0.6-5.1 0.6zm19.3-0.1q-1.7 0-2.6-1.2q-0.8-1.1-0.5-3.2l3.6-23q0.6-3.7 4.4-3.7q1.8 0 2.7 1.2q0.8 1.2 0.5 3.3l-2.2 13.6h0.1l6.4-6.7q1.1-1.2 2-1.7q1-0.5 2.4-0.5q1.6 0 2.3 0.8q0.8 0.8 0.6 2q-0.1 1.2-1.1 2.4l-5.3 5.5l3.9 5.9q0.8 1.3 0.7 2.5q-0.1 1.2-1 2q-0.8 0.8-2.3 0.8q-1.7 0-2.7-0.7q-0.9-0.6-1.9-2.2l-4.6-6.7l-0.9 5.8q-0.6 3.8-4.5 3.8zm28.9-25q-2 0-2.9-0.9q-1-1-0.7-2.7q0.5-3.7 4.8-3.7q2 0 3 0.9q0.9 0.9 0.7 2.7q-0.6 3.7-4.9 3.7zm-4 25q-1.8 0-2.6-1.2q-0.9-1.2-0.5-3.2l2.2-13.8q0.6-3.7 4.4-3.7q1.8 0 2.6 1.1q0.9 1.2 0.5 3.3l-2.2 13.7q-0.6 3.8-4.4 3.8zm12.2-0.1q-1.9 0-2.7-1.1q-0.8-1.2-0.5-3.3l2.2-13.7q0.6-3.7 4.4-3.7q1.5 0 2.4 0.8q0.8 0.9 0.7 2.6q2.3-3.5 7-3.5q3.4 0 5.2 2.2q1.9 2.1 1.2 6.9l-1.5 9q-0.6 3.8-4.4 3.8q-1.8 0-2.7-1.1q-0.8-1.2-0.4-3.3l1.3-8.3q0.2-1.7-0.3-2.5q-0.5-0.9-1.9-0.9q-1.8 0-3 1.2q-1.1 1.2-1.4 3.3l-1.3 7.8q-0.5 3.8-4.3 3.8zm33.9 0.2q-5.4 0-8.2-2.7q-2.8-2.7-2.8-7.2q0-3.2 1.3-6q1.5-2.8 4.3-4.5q2.8-1.7 7.1-1.7q1.5 0 2.7 0.2q1.1 0.2 2.2 0.5q1.3 0.4 1.8 1.2q0.6 0.8 0.5 1.7q0 0.9-0.4 1.7q-0.5 0.7-1.3 1.1q-0.7 0.3-1.7 0q-1.6-0.7-3.1-0.7q-2.1 0-3.3 1q-1.2 0.9-1.8 2.3q-0.5 1.5-0.5 3.1q0 1.8 1 3.1q1.1 1.1 3.5 1.1q0.5 0 1.3-0.2q0.8-0.1 1.7-0.5q1-0.3 1.8 0.2q0.8 0.6 1 1.7q0.3 1-0.2 2q-0.5 1.1-1.9 1.6q-1 0.5-2.4 0.7q-1.3 0.3-2.6 0.3zm16.5 0q-2.1 0-3.7-1q-1.6-0.9-2.6-2.4q-1-1.6-1-3.3q0-3.4 2.9-4.9q2.9-1.5 9-1.5h2.9v-0.4q0.3-1.4-0.6-2.3q-0.9-0.8-2.9-0.8q-2.4 0-5 1q-1.4 0.5-2.4 0q-0.9-0.6-1.2-1.6q-0.3-1.1 0.3-2.1q0.6-1.1 2.3-1.7q1.9-0.6 3.7-0.9q1.8-0.2 3.4-0.2q3.9 0 6.1 1.4q2.2 1.4 2.9 3.8q0.8 2.4 0.3 5.2l-1.2 7.8q-0.6 3.8-4.1 3.8q-1.5 0-2.4-0.9q-0.7-0.8-0.6-2.6q-1 1.9-2.6 2.8q-1.6 0.8-3.5 0.8zm2.7-5q1.6 0 2.7-1q1.1-1 1.3-2.6l0.2-0.9h-2.3q-2.5 0-3.5 0.5q-1.1 0.5-1.1 1.7q0 1.1 0.8 1.7q0.7 0.6 1.9 0.6zm18.1 4.9q-1.8 0-2.7-1.1q-0.8-1.1-0.5-3.2l2.2-14q0.6-3.6 4.3-3.6q1.8 0 2.6 1q0.9 1.1 0.6 3q0.9-1.9 2.6-3q1.7-1.1 3.8-1.1q1.3 0 1.9 0.6q0.7 0.5 0.7 1.9q0 2-1 3q-0.9 0.9-2.8 1.1l-1.5 0.2q-2.3 0.2-3.3 1.3q-0.9 1-1.3 3.3l-1.1 6.9q-0.6 3.7-4.5 3.7zm26.4 0.1q-3.3 0-5.9-1.2q-2.5-1.3-3.9-3.5q-1.5-2.2-1.5-5.2q0-3.7 1.6-6.4q1.7-2.8 4.4-4.3q2.8-1.5 6.2-1.5q3.7 0 5.9 1.6q2.2 1.5 3 4q0.8 2.5 0.5 5.2q-0.1 1.1-0.7 1.5q-0.4 0.3-1.2 0.3h-12.6q0.1 1.9 1.5 2.9q1.3 0.9 3.6 0.9q1 0 2.2-0.2q1.2-0.2 2.2-0.6q1.4-0.6 2.3-0.1q0.8 0.5 1 1.6q0.3 1-0.3 2.1q-0.4 1.1-1.7 1.6q-1.6 0.7-3.2 1q-1.7 0.3-3.4 0.3zm0.8-17.1q-1.9 0-3 1.1q-1.1 1.2-1.5 2.9h8.1q0.1-1.8-0.8-2.9q-0.8-1.1-2.8-1.1z"/><path class="C" d="m479.7 332h11.9v-60.1h1.6l17.3 57.1h12.4l17.3-57.1h1.7v60.1h11.9v-73.3h-20.7l-16.4 57.2l-16.4-57.2h-20.6zm105.8-73.3h-11.8v61.1c0 8.1-2.6 9.3-9.8 9.3v10.5c15.2 0 21.7-2.9 21.7-18.9zm40 0v73.3h28.7c14.2 0 23.3-5.8 23.3-20.8c0-10.1-4.1-14.6-10.4-17c5.8-3.2 8.6-7.6 8.6-16.5c0-13.6-7.8-19-22.3-19zm27.8 41.3c5.8 0 12 2.2 12 10.6c0 8.7-4.4 11.1-11.8 11.1h-16.2v-21.7zm-0.6-31.1c7.3 0 10.9 3.1 10.9 10.2c0 7.2-3.2 10.8-10.5 10.8h-15.7v-21zm58.3 54.1c-8.9 0-12.1-4.3-12.2-12.9h33.2l0.7-8.3c0-16.7-7.5-24.5-22.4-24.5c-14.8 0-23.3 8.9-23.3 28.4c0 18.9 6.2 27.4 22.3 27.4c9.4 0 21.6-2.4 21.6-2.4l-0.2-8.7c0 0-11.2 1-19.7 1zm-12.3-21.9c0.1-10.2 3.6-14.2 11.6-14.2c7.8 0 11 3.5 11 14.2zm84.8-6.2c0-12.2-5.3-17.6-18.4-17.6c-9.8 0-21.5 2.8-21.5 2.8l0.4 8.2c0 0 13-1.1 20.2-1.1c5.2 0 7.8 1.9 7.8 7.7v3.9l-13.8 1.2c-11.5 0.9-17.7 4.8-17.7 16.1c0 11.1 5.4 17 16 17c8.6 0 17.2-3.9 17.2-3.9c3.9 3.1 7.7 3.9 14.2 3.9l0.3-8.8c-3.1-0.5-4.5-1.8-4.7-5zm-11.5 12.1v14.3c0 0-7.2 2.3-13.3 2.3c-4.5 0-6.5-3-6.5-7.8c0-4.8 2.4-7.2 7.4-7.6zm58.6-28.6v41.5c0 0-5.8 2.8-12.2 2.8c-8.3 0-9.1-4.4-9.1-16.2v-28.1h-11.7v28c0 18.8 3.2 26.7 18.5 26.7c6.7 0 14.5-4.5 14.5-4.5v3.3h11.6v-53.5zm54.4 10v-10h-14.8v-15.5h-11.5v15.5h-6.9v10h6.9v24.8c0 15.4 3.7 19.9 15.8 19.9c3.8 0 10.9-1.4 10.9-1.4l-0.5-9.3c0 0-5.8 0.3-8.8 0.3c-5.5 0-5.9-2.8-5.9-10.8v-23.5zm4.6-10l14.1 53.5h9.2l-6.5 23h11.5l20.3-76.5h-11.5l-11.4 43.6h-2.9l-11.3-43.6zm127.6 42.5c-4.6 0.8-13.1 1.6-18.6 1.6c-14.4 0-17.1-7-17.1-27.2c0-20.7 3.3-27.2 16.8-27.2c5.3 0 14.1 0.8 18.9 1.7l0.5-9.7c-4.6-1-13.4-2.6-21-2.6c-21.9 0-27.5 11.4-27.5 37.8c0 25.1 5.1 37.8 27.5 37.8c6.9 0 15.8-1.3 20.9-2.3zm51.2-26c0-12.2-5.3-17.7-18.4-17.7c-9.8 0-21.5 2.8-21.5 2.8l0.4 8.2c0 0 13-1.1 20.2-1.1c5.2 0 7.8 1.9 7.8 7.8v3.8l-13.8 1.2c-11.5 0.9-17.7 4.8-17.7 16.1c0 11.2 5.4 17.1 16 17.1c8.6 0 17.2-4 17.2-4c3.9 3.1 7.7 4 14.2 4l0.3-8.9c-3.1-0.5-4.5-1.7-4.7-5zm-11.5 12.1v14.3c0 0-7.2 2.3-13.3 2.3c-4.5 0-6.5-3-6.5-7.8c0-4.8 2.4-7.2 7.4-7.6zm26.2 24.9h11.6v-37.3c0 0 8.4-3.7 18.1-5.7v-11.6c-9.1 1.7-18.2 7.6-18.2 7.6v-6.5h-11.5zm59.6-8.9c-8.9 0-12.1-4.3-12.2-12.9h33.1l0.8-8.3c0-16.7-7.5-24.5-22.5-24.5c-14.7 0-23.2 8.9-23.2 28.4c0 18.9 6.2 27.4 22.3 27.4c9.4 0 21.6-2.4 21.6-2.4l-0.2-8.7c0 0-11.3 1-19.7 1zm-12.3-21.9c0.1-10.2 3.6-14.2 11.5-14.2c7.8 0 11 3.5 11 14.2z"/></svg>